<svg xmlns="http://www.w3.org/2000/svg" width="32" height="24" viewBox="0 6 32 24"><path fill="#fff" d="M28.593 15.66c-.448-.485-.494-.417-1.217-.603-.666-.087-8.458.682-8.78.574-.527-.128-1.037-.126-.281-.314 1.774-.443 7.007-.238 7.816-.557 1.183-.517 2.166-.769 1.827-1.804-.598-1.255-1.685-1.01-3.54-1.1l-8.752.836c.118-.162 4.392-.744 4.49-.915.68-.36.783-.964.676-1.68-.393-.62-.784-.499-1.186-.674-.56-.072-1.72-.14-2.34-.063-2.175.344-2.349.584-4.656 1.17-.4.159-2.696 1.112-3.552 1.404-1.89 1.032-7.289 2.808-6.957 6.643.393 4.546 3.157 5.51 8.546 5.897l10.446.6c.775.056 1.377-.046 1.904-.666.241-.334.288-.646.228-1.103-.044-.344-.384-.814-1.207-1.101-.593-.162-4.29-.003-5.075-.187l-.146-.076.016-.117.139-.09.647-.076 4.045.189c.843.04 3.752.345 4.265-.193.513-.538.43-.59.43-1.403.008-.521-.259-.978-.515-1.181-.701-.25-5.624.017-6.89-.257-.61-.366-.498.127-.21-.24.791-.648 5.503.133 8.247-.124 1.831-.171 1.847-1.247 1.84-1.561-.006-.306.047-.782-.258-1.228zm-7.165 9.227-12.118-.71c-4.157-.302-6.918-2.027-6.918-5.706 0-2.964 2.276-3.701 4.245-5.017 1.619-1.013 3.433-1.648 5.206-2.333 1.965-.723 2.737-.932 3.865-1.26.844-.16 1.577-.296 2.14-.38 1.22.026 2.03.092 2.59.509.374.302.328.712.051 1.211-.187.711-3.148.826-3.495.955-.446.12-.816.125-1.259.296-.965.529-1.475.604-.383.474l2.294-.272 4.876-.345c.014-.001 2.306-.096 2.32-.098.708-.064 1.983-.388 2.846.811.556 1.2-1.467 1.341-2.056 1.518l-7.025.49c-1.306.078-1.072.865.236.837l7.782-.533c.165 0 .33-.005.493-.008.418.04.76.156 1 .324.303.21.55.56.55 1.23 0 .302-.074.487-.157.612a1.14 1.14 0 0 1-.448.369c-.465.236-1.138.336-1.835.348h-.026a4.003 4.003 0 0 0-.34-.016l-6.359-.058c-1.322-.047-1.516.854-.195.922 2.125.054 4.27.127 6.319.175.528.361.574.781.616 1.404 0 .225-.107.496-.32.72-.21.221-.454.32-.65.32a86.68 86.68 0 0 0-2.078.011l-5.679-.222c-1.304-.022-1.54.695-.238.774l4.655.128.505.225.38.412c.253.408.207.335.207.741 0 .375-.127.54-.48.79-.379.268-.83.373-1.1.353h-.017zm-12.118-.71h-.007.013z"/></svg>